<?xml version="1.0" encoding="UTF-8"?>
<svg id="Calque_2" data-name="Calque 2" xmlns="http://www.w3.org/2000/svg" viewBox="0 0 310.04 210.65">
  <defs>
    <style>
      .cls-1 {
        fill: #fff;
      }

      .cls-1, .cls-2, .cls-3 {
        stroke-width: 0px;
      }

      .cls-2 {
        fill: #eabbd5;
      }

      .cls-3 {
        fill: #a02f66;
      }
    </style>
  </defs>
  <g id="Calque_1-2" data-name="Calque 1">
    <g>
      <path class="cls-3" d="M271,31.85c-11.51-3.52-96.6-17.63-115.95-18.39-19.35.76-104.44,14.87-115.95,18.39-.42,23.51-23.27,73.47-23.27,73.47,0,0,22.86,49.96,23.27,73.47,11.51,3.52,96.6,17.63,115.95,18.39,19.35-.76,104.45-14.87,115.95-18.39.42-23.51,23.27-73.47,23.27-73.47,0,0-22.86-49.96-23.27-73.47Z"/>
      <path class="cls-3" d="M308.13,101.14h0c-6.41-13.97-23.1-54.28-23.43-72.8l-.13-6.92-6.05-1.85C266.91,16.02,176.29.83,155.35.02l-.31-.02-.32.02c-20.96.82-111.56,16-123.16,19.55l-6.06,1.85-.12,6.92c-.32,18.44-17.02,58.8-23.43,72.79L.04,105.33h0s-.04.08-.04.08l.25.38,1.71,3.72c6.41,14,23.11,54.36,23.43,72.8l.12,6.93,6.06,1.85c11.61,3.55,102.2,18.73,123.15,19.55l.33.02.29-.02c20.96-.82,111.57-16,123.18-19.55l6.05-1.85.13-6.93c.33-18.51,17.02-58.83,23.43-72.8l1.91-4.18-1.91-4.18h0ZM299.35,114.93c-6.52,15.3-20.14,49.32-20.46,67.26l-.04,2.33-1.93.59c-11.46,3.5-101.05,18.5-121.78,19.31h-.07s-.11,0-.11,0c-20.75-.82-110.33-15.81-121.79-19.31l-1.93-.59-.04-2.33c-.33-18.53-14.85-54.23-21.07-68.72-.96-2.25-1.95-4.48-2.95-6.71l-.66-1.44.66-1.44c.11-.23,1.28-2.81,2.95-6.71,6.23-14.49,20.75-50.19,21.07-68.72l.04-2.33,1.93-.59c11.47-3.5,101.06-18.5,121.79-19.31h.05s.13,0,.13,0c20.74.81,110.33,15.81,121.8,19.31l1.93.59.04,2.33c.32,17.94,13.94,51.96,20.46,67.26h-.01l.63,1.45c.96,2.25,1.94,4.48,2.95,6.71l.66,1.44-.66,1.44c-.1.21-1.25,2.76-2.95,6.71l-.62,1.45h0Z"/>
    </g>
    <g>
      <path class="cls-2" d="M138.33,75.9c.1,0,.2-.02.3-.05l4.78-1.58c1.19-.44.62-2.17-.61-1.81l-4.78,1.58c-1.03.36-.77,1.85.3,1.86h0Z"/>
      <path class="cls-2" d="M191.55,75.68c-1.44-1.99-3.98-2.88-7.41-3.92-5.84-1.77-10.95-2-14.1-.73.29-4.98-2.26-8.81-7.27-9.15,1.43-3.61.62-8.26-1.57-11.48-1.4-2.17-3.93-3.98-6.32-3.96-.23-.71-.65-1.37-1.25-1.9l-.82-.73c-1.14-1.01-2.57-1.54-4.05-1.56.52-1.35.55-2.87.01-4.31l-.38-1.03c-.41-1.09-1.22-1.96-2.29-2.44-1.64-.75-4.08-.49-4.9,1.29-.3.66-.33,1.39-.08,2.07l.71,1.89c-5.91-2.33-12.65,7.04-11.82,12.43-1.77,1.82-2.84,4.21-3.03,6.71-3.82.94-6.44,5-5.67,8.84l.16.92c-5.16,1.65-5.71,8.64-.96,11.1-.48.33-1.12.67-.99,1.35l4.94,30.65c.22,1.39,1.42,2.41,2.85,2.41h32.69c1.1,0,2.1-.63,2.58-1.59.24-.17.47-.38.66-.59,4.39,2.57,12.04-2.93,14.98-5.03,3.19-2.37,10.42-8.34,9.07-12.84,2.33-1.2,3.59-3.96,4.77-8.78,1.09-4.74.93-7.62-.51-9.62h0ZM135.62,112.22l-.44-5.36c.79.67,1.73,1.34,2.69,1.91.96.59,2.43,1.33,3.85,1.59-.97-2.12-1.09-4.67-1.13-7.66-.06-5.02.72-9.29,2.17-12.38-1.4-.36-3.07-.4-4.41-.54-1.78-.21-3.28-.24-4.51.81l-.76-9.22c2.9-1.97,6.73-1.96,9.63.03v6.96c.67.14,1.32.33,1.92.6v-7.56c2.91-1.99,6.75-2,9.66,0-.87,1.04-1.51,2.34-1.67,4.22-1.54.11-3.52,1.03-5.08,1.9-3.19,1.78-5.11,7.59-5.02,15.17.12,4.44.12,7.44,3.29,9.54h-10.19ZM156.86,101.7c1.75,3.99,3.54,7.2,4.99,8.94-.27.34-.75.61-1.19.8-7.27-3.42-9.63-18.32-8.38-23.87.12-.03.22-.04.31-.05.06.91.19,1.81.38,2.71.75,3.5,2.06,7.23,3.9,11.47h0ZM171.21,106.49c-.95,0-1.33-1.26-.51-1.76,7.56-4.51,13.68-11.35,11.92-13.85.84.86,1.54,1.65,2.04,2.34-1.24,4.46-7.82,10.43-13.45,13.27h0ZM186.42,92.39c-2.76-4.08-11.77-11.19-16.43-13.72-1.08-.61-2.21-1.16-3.37-1.58.04-.09.08-.18.14-.28,5.77.38,19.5,6.83,20.77,14.67-.43.53-.82.8-1.11.91h0ZM151.52,45.22l.82.73c.48.42.74.99.8,1.58.05.54-.07,1.1-.37,1.56-.22.39-.62.71-1.09.56-.11-.03-.21-.09-.3-.17l-3.65-3.25c-.22-.47-.51-.99-.8-1.46.17-.14.32-.28.47-.43,1.43-.45,2.99-.12,4.11.88h0ZM142.95,36.54c.09-.19.25-.34.45-.42,1.24-.49,2.75.2,3.19,1.44l.38,1.03c.62,1.64.14,3.44-1.11,4.57-.33-.45-.74-.97-1.23-1.48l-1.7-4.52c-.08-.2-.07-.42.02-.61h0ZM119.22,74.96c-.4-2.28,1.53-4.75,3.92-4.66,4.72,0,10.55-1.08,17.33-3.22,5.23-1.65,9-3.29,9.16-3.36.48-.21.71-.78.49-1.26-.21-.48-.78-.7-1.27-.49-.15.06-14.52,6.32-25.46,6.41l-.18-1.03c-.61-3.06,1.61-6.25,4.71-6.77,2.2.4,3.95.5,5.14.5s1.76-.09,1.81-.1c1.25-.23.98-2.02-.28-1.88-.02,0-2.12.29-5.67-.28.15-1.71.79-3.31,1.85-4.66,2.62,3.9,9.16,3.07,12.89,1.41,2.54-1.1,4.99-3.11,4.93-6.04.46.37,1.64,1.57,2.18,1.78,1.06.51,2.42.23,3.19-.64.6-.66.98-1.5,1.09-2.34,1.2.09,2.42.72,3.49,1.81.58,1.84-6.05,5.39-12.59,7.33-.51.15-.8.68-.65,1.19.15.51.7.79,1.2.64,4.42-1.38,11.07-3.92,13.49-7.23,1.6,2.78,2.36,6.96.43,10.25-4.57,6.63-11.77,8.33-11.84,8.35-.52.11-.84.63-.73,1.14.12.52.64.84,1.15.72.32-.07,7.76-1.8,12.76-8.79.8-.03,2.65.02,4.15,1.14.61.46,1.09,1.05,1.46,1.77.75,2.83-5.69,6.43-7.49,7.38-.9.46-.56,1.8.44,1.8.15,0,.29-.03.44-.1.08-.04,1.88-.95,3.81-2.31,1.58-1.11,2.77-2.19,3.58-3.22,0,.76-.08,1.51-.27,2.21-1.41,1.43-2.47,2.61-3.09,4.13-3.16-.62-5.06.44-7.17,2-.83.29-1.63.68-2.36,1.17-3.5-2.32-8.09-2.33-11.59,0-3.5-2.33-8.09-2.33-11.59,0-1.91-1.27-4.25-1.88-6.55-1.72-.81.06-1.61.21-2.38.45-1.99-.09-3.62-1.55-3.92-3.52h0ZM126.36,111.42l-4.84-30.08c2.84-1.94,6.83-1.91,9.63.09l.98,11.84c-.07.19-.14.38-.21.58-.45,1.28-.7,2.74-.7,4.04v.31c.03,2.25.65,4.44,1.84,6.29l.64,7.74h-6.37c-.47,0-.88-.34-.95-.8h0Z"/>
      <path class="cls-2" d="M184.7,69.93c2.88.87,5.32,1.71,7.1,3.23.14-1.42-.15-3.03-.46-4.11-.47-1.79-1.23-3.6-1.98-4.72-1.62-2.42-5.31-5.22-10.41-5.14-5.6.08-5.7,2.71-6.36,6.15-.21,1.04-.45,2.14-.48,3.17,4.17-.55,8,.09,12.6,1.42h0Z"/>
    </g>
    <path class="cls-1" d="M70.96,134.78h-.75v16.15h.75v.24h-3.29v-.24h.75v-9.33h-6.34v9.33h.75v.24h-3.29v-.24h.75v-16.15h-.75v-.24h3.29v.24h-.75v6.57h6.34v-6.57h-.75v-.24h3.29v.24ZM78.56,139.48c-.08-.43-.29-.8-.64-1.1-.35-.3-.77-.47-1.27-.5-.71-.05-1.38.16-2.01.61s-1.03.98-1.21,1.57l-.41,1.34-.19-.05,1.02-3.29v-.19c1.53-.16,2.48-.24,2.83-.24.71,0,1.34.14,1.89.42.55.28.98.71,1.31,1.28s.48,1.27.48,2.09v9.74l-1.77-.89c-1.15.77-2.18,1.15-3.1,1.15-1.21-.02-2.13-.5-2.76-1.46-.63-.96-.77-2.03-.44-3.22.19-.7.54-1.36,1.04-1.98.5-.62,1.04-1.14,1.61-1.56s1.13-.83,1.68-1.21,1-.79,1.37-1.22c.36-.43.55-.86.57-1.3ZM78.56,149.89v-9.31c-.06.14-.14.28-.23.42-.09.14-.17.25-.24.35s-.18.22-.31.37c-.14.15-.24.26-.3.32l-.38.37s-.12.12-.35.37c-1.65,1.65-2.55,3.3-2.71,4.97-.08.86.05,1.58.4,2.15s.87.88,1.56.92,1.55-.26,2.57-.94ZM82.75,138.11h-.75v-.24h2.54v1.1c.32-.27.72-.51,1.19-.72.47-.21.94-.36,1.42-.47.48-.1.94-.16,1.39-.16,1.87,0,3.47.68,4.81,2.03,1.33,1.35,2,2.97,2,4.86s-.67,3.51-2,4.87c-1.33,1.36-2.93,2.04-4.81,2.04-1.47,0-2.8-.45-4-1.34v4.15h.75v.24h-3.29v-.24h.75s0-16.12,0-16.12ZM84.54,140.56v7.92c.47.83,1.05,1.49,1.74,1.97.69.48,1.44.72,2.25.72.9,0,1.74-.3,2.51-.9.77-.6,1.37-1.41,1.82-2.42.44-1.02.67-2.12.67-3.32,0-1.81-.49-3.36-1.46-4.67-.98-1.3-2.15-1.96-3.52-1.96-.81,0-1.56.24-2.25.72-.69.48-1.28,1.13-1.74,1.94ZM97.18,138.11h-.75v-.24h2.54v1.1c.32-.27.72-.51,1.19-.72.47-.21.94-.36,1.42-.47.48-.1.94-.16,1.39-.16,1.87,0,3.47.68,4.81,2.03s2,2.97,2,4.86-.67,3.51-2,4.87c-1.33,1.36-2.93,2.04-4.81,2.04-1.47,0-2.8-.45-4-1.34v4.15h.75v.24h-3.29v-.24h.75s0-16.12,0-16.12ZM98.97,140.56v7.92c.47.83,1.05,1.49,1.74,1.97.69.48,1.44.72,2.25.72.9,0,1.74-.3,2.51-.9.77-.6,1.37-1.41,1.82-2.42.44-1.02.67-2.12.67-3.32,0-1.81-.49-3.36-1.46-4.67-.98-1.3-2.15-1.96-3.52-1.96-.81,0-1.56.24-2.25.72-.69.48-1.28,1.13-1.74,1.94ZM109.63,153.56l1.19-1.51c.73.96,1.5,1.41,2.31,1.34s1.5-.61,2.05-1.63c.13-.27.28-.66.46-1.18-.16.03-.33.16-.51.4s-.36.31-.53.23c-.39-1.41-.98-3.59-1.78-6.54-.8-2.95-1.41-5.19-1.83-6.73h-.73v-.24h3.29v.24h-.7c.34,1.25.86,3.16,1.55,5.72.69,2.57,1.22,4.51,1.57,5.84l2.54-9.38c.08-.32.06-.63-.05-.94-.15-.46-.33-.96-.56-1.49h1.5l-3.29,12.16-.05.14c-.23.8-.48,1.5-.77,2.11-.31.62-.74,1.18-1.3,1.68-.56.5-1.17.74-1.83.74-.98,0-1.83-.33-2.54-.98ZM122.68,137.63v1.25c.26-.46.69-.8,1.3-1.02s1.21-.29,1.82-.22,1.14.3,1.61.68.7.88.7,1.49v11.13h.75v.22h-3.29v-.22h.75v-11.13c0-.51-.19-.92-.57-1.21-.38-.3-.8-.44-1.25-.44s-.87.15-1.25.44c-.38.3-.57.7-.57,1.21v11.13h.75v.22h-3.29v-.22h.75v-12.19h-.75v-.14c.94-.16,1.68-.49,2.23-.98h.31ZM129.92,144.52c0-1.89.67-3.51,2-4.86,1.33-1.35,2.93-2.03,4.81-2.03.77,0,1.46.13,2.06.38.6.26,1.06.56,1.38.91s.59.75.79,1.2c.2.45.33.83.38,1.15.05.32.07.62.07.89h-9.35c-.21.75-.31,1.54-.31,2.35,0,1.82.49,3.39,1.46,4.69.98,1.3,2.15,1.96,3.52,1.96.79,0,1.54-.24,2.24-.72s1.29-1.14,1.76-1.97l.85.86c-1.34,1.39-2.95,2.09-4.84,2.09-1.87,0-3.47-.68-4.81-2.04s-2-2.98-2-4.87h0ZM136.72,137.9c-.68,0-1.32.17-1.94.52s-1.15.82-1.6,1.43-.81,1.3-1.07,2.09h7.63c0-1.12-.31-2.07-.92-2.86s-1.32-1.18-2.11-1.18ZM144.59,141.06c.42.43,1.12,1.15,2.11,2.15.98,1,1.72,1.74,2.2,2.22.52.53.84,1.14.98,1.84s.09,1.35-.15,1.97c-.23.62-.71,1.14-1.44,1.56-.73.42-1.62.64-2.69.64-.55,0-1.04-.06-1.46-.19s-.73-.24-.9-.35c-.17-.1-.45-.3-.84-.59l.73-.89c.29.3.51.52.65.66.15.14.35.3.62.5.27.2.54.34.84.41s.61.1.97.08c.5-.03.95-.16,1.34-.37.4-.22.7-.51.91-.88s.22-.84.04-1.42-.59-1.18-1.2-1.82c-.05-.05-1.3-1.32-3.75-3.81-.55-.56-.88-1.16-.99-1.79-.11-.63-.04-1.19.23-1.67.27-.48.68-.88,1.23-1.2.56-.32,1.19-.48,1.9-.48s1.26.04,1.74.12l1.09.07v.19l.99,3.29-.19.05-.41-1.34c-.18-.59-.58-1.11-1.2-1.55s-1.3-.64-2.02-.59c-.53.05-.98.24-1.34.59-.36.34-.55.74-.57,1.2-.02.46.18.92.58,1.4h0ZM153.19,141.06c.42.43,1.12,1.15,2.11,2.15s1.72,1.74,2.2,2.22c.52.53.84,1.14.98,1.84.14.7.09,1.35-.15,1.97s-.71,1.14-1.44,1.56-1.62.64-2.69.64c-.55,0-1.04-.06-1.46-.19s-.73-.24-.9-.35c-.17-.1-.45-.3-.84-.59l.73-.89c.29.3.51.52.65.66.15.14.35.3.62.5.27.2.54.34.84.41.29.07.61.1.97.08.5-.03.95-.16,1.34-.37.4-.22.7-.51.91-.88.21-.37.22-.84.04-1.42s-.59-1.18-1.2-1.82c-.05-.05-1.3-1.32-3.75-3.81-.55-.56-.88-1.16-.99-1.79-.11-.63-.04-1.19.23-1.67.27-.48.68-.88,1.23-1.2.56-.32,1.19-.48,1.9-.48s1.26.04,1.74.12l1.09.07v.19l.99,3.29-.19.05-.41-1.34c-.18-.59-.58-1.11-1.2-1.55-.62-.44-1.3-.64-2.02-.59-.53.05-.98.24-1.34.59-.36.34-.55.74-.57,1.2-.02.46.18.92.58,1.4h0ZM166.21,144.52c0-1.89.67-3.51,2-4.86,1.33-1.35,2.93-2.03,4.81-2.03,1.52,0,2.89.47,4.12,1.42v1.73c-.47-.88-1.06-1.58-1.78-2.1s-1.5-.78-2.34-.78c-1.37,0-2.55.65-3.52,1.96-.98,1.3-1.46,2.86-1.46,4.68s.49,3.38,1.46,4.68c.98,1.3,2.15,1.96,3.52,1.96.79,0,1.54-.24,2.24-.72.7-.48,1.29-1.14,1.76-1.97l.85.86c-1.34,1.39-2.95,2.09-4.84,2.09s-3.47-.68-4.81-2.04c-1.33-1.36-2-2.98-2-4.87h0ZM181.27,134.34v4.53c.26-.46.69-.8,1.3-1.02s1.21-.29,1.82-.22c.61.07,1.14.3,1.61.68.47.38.7.88.7,1.49v11.13h.75v.22h-3.29v-.22h.75v-11.13c0-.51-.19-.92-.57-1.21-.38-.3-.8-.44-1.25-.44-.45,0-.87.15-1.25.44-.38.3-.57.7-.57,1.21v11.13h.75v.22h-3.29v-.22h.75v-15.5h-.75v-.14c.94-.14,1.68-.46,2.23-.96h.31,0ZM188.51,144.52c0-1.89.67-3.51,2-4.86,1.33-1.35,2.93-2.03,4.81-2.03.77,0,1.46.13,2.06.38.6.26,1.06.56,1.38.91.32.35.59.75.79,1.2.2.45.33.83.38,1.15.05.32.07.62.07.89h-9.35c-.21.75-.31,1.54-.31,2.35,0,1.82.49,3.39,1.46,4.69s2.15,1.96,3.52,1.96c.79,0,1.54-.24,2.24-.72.7-.48,1.29-1.14,1.76-1.97l.85.86c-1.34,1.39-2.95,2.09-4.84,2.09-1.87,0-3.47-.68-4.81-2.04-1.33-1.36-2-2.98-2-4.87h0ZM195.32,137.9c-.68,0-1.32.17-1.94.52s-1.15.82-1.6,1.43c-.45.61-.81,1.3-1.07,2.09h7.63c0-1.12-.31-2.07-.92-2.86s-1.32-1.18-2.11-1.18h0ZM201.85,138.09v-.22h6.27l-5.11,13.08h2.06c.76,0,1.44-.23,2.03-.68s.99-1.05,1.19-1.79l.22-.82.17.02-.87,3.24v.24h-6.85v-.02l5.13-13.05h-1.5c-.76,0-1.44.22-2.03.67s-.99,1.04-1.19,1.78l-.05.22-.1.36-.17-.05.8-2.98ZM219.46,134.78h-.75v16.15h.75v.24h-3.29v-.24h.75v-16.15h-.75v-.24h3.29v.24ZM223.23,137.63v1.25c.26-.46.69-.8,1.3-1.02s1.21-.29,1.82-.22,1.14.3,1.61.68.7.88.7,1.49v11.13h.75v.22h-3.29v-.22h.75v-11.13c0-.51-.19-.92-.57-1.21-.38-.3-.79-.44-1.25-.44s-.87.15-1.25.44c-.38.3-.57.7-.57,1.21v11.13h.75v.22h-3.29v-.22h.75v-12.19h-.75v-.14c.94-.16,1.68-.49,2.23-.98h.31ZM230.47,144.52c0-1.89.67-3.51,2-4.86,1.33-1.35,2.93-2.03,4.81-2.03.77,0,1.46.13,2.06.38.6.26,1.06.56,1.38.91s.59.75.79,1.2.33.83.38,1.15.07.62.07.89h-9.35c-.21.75-.31,1.54-.31,2.35,0,1.82.49,3.39,1.46,4.69s2.15,1.96,3.52,1.96c.79,0,1.54-.24,2.24-.72s1.29-1.14,1.76-1.97l.85.86c-1.34,1.39-2.95,2.09-4.84,2.09-1.87,0-3.47-.68-4.81-2.04s-2-2.98-2-4.87ZM237.28,137.9c-.68,0-1.32.17-1.94.52s-1.15.82-1.6,1.43-.81,1.3-1.07,2.09h7.63c0-1.12-.31-2.07-.92-2.86s-1.32-1.18-2.11-1.18h0ZM245.15,141.06c.42.43,1.12,1.15,2.11,2.15.98,1,1.72,1.74,2.2,2.22.52.53.84,1.14.98,1.84.14.7.09,1.35-.15,1.97s-.71,1.14-1.44,1.56-1.62.64-2.69.64c-.55,0-1.04-.06-1.46-.19s-.73-.24-.9-.35c-.17-.1-.45-.3-.84-.59l.73-.89c.29.3.51.52.65.66.15.14.35.3.62.5.27.2.54.34.84.41.29.07.61.1.97.08.5-.03.95-.16,1.34-.37.4-.22.7-.51.91-.88.21-.37.22-.84.04-1.42-.19-.58-.59-1.18-1.2-1.82-.05-.05-1.3-1.32-3.75-3.81-.55-.56-.88-1.16-.99-1.79-.11-.63-.04-1.19.23-1.67.27-.48.68-.88,1.23-1.2.56-.32,1.19-.48,1.9-.48s1.26.04,1.74.12l1.09.07v.19l.99,3.29-.19.05-.41-1.34c-.18-.59-.58-1.11-1.2-1.55s-1.3-.64-2.02-.59c-.53.05-.98.24-1.34.59-.36.34-.55.74-.57,1.2-.02.46.18.92.58,1.4h0Z"/>
    <path class="cls-2" d="M89.56,173.35h3.87v.61h-5.25v-9.31h1.38v8.69ZM96.99,167.94c.43,0,.79.08,1.09.23s.54.37.73.64c.19.27.32.57.4.92s.12.72.12,1.1v.29h-3.89c0,.23.04.49.11.76s.2.52.37.75.39.42.66.57.61.23,1,.23h1.31v.51h-1.33c-.59,0-1.1-.07-1.53-.2s-.78-.33-1.05-.58-.48-.57-.61-.93-.2-.79-.2-1.26c0-.39.06-.77.19-1.14s.31-.69.54-.97.53-.51.88-.68.75-.25,1.2-.25ZM96.92,168.51c-.26,0-.48.06-.67.18s-.34.27-.46.47-.21.42-.27.68-.09.52-.09.8h2.67v-.27c0-.24-.03-.47-.07-.69s-.1-.42-.19-.59-.21-.31-.36-.41-.34-.15-.58-.15ZM107.9,169.05c-.22-.18-.44-.31-.66-.39s-.48-.13-.77-.13c-.32,0-.59.06-.84.18s-.45.28-.61.49-.29.45-.38.72-.13.56-.13.86c0,.14,0,.31.03.49s.06.38.12.58.14.39.26.58.26.36.44.51.41.27.68.37.59.14.97.14h.94v.51h-.94c-.5,0-.94-.04-1.32-.12s-.71-.18-.99-.32-.51-.3-.7-.5-.34-.41-.45-.64-.19-.49-.24-.75-.07-.54-.07-.83c0-.38.07-.74.21-1.09s.34-.65.61-.91c.27-.26.61-.47,1.01-.62s.87-.23,1.41-.23c.13,0,.27.01.42.04s.29.07.44.13.29.13.44.21.28.18.41.3l-.27.43ZM110.53,168.55c.27-.12.52-.21.75-.29s.44-.14.64-.19.38-.08.55-.1.34-.03.5-.03c.4,0,.7.1.91.31s.31.53.31.99v4.72h-1.28v-4.52c0-.09,0-.19-.03-.28s-.05-.18-.1-.26-.12-.14-.2-.18-.19-.07-.33-.07c-.21,0-.46.03-.75.08s-.61.16-.96.32v4.92h-1.28v-9.31h1.28v3.9ZM117.9,168.49c-.2,0-.38,0-.53.02s-.29.03-.41.05-.24.04-.34.07-.21.06-.32.08l-.15-.41c.35-.13.72-.22,1.11-.28s.75-.08,1.1-.08c.44,0,.81.02,1.09.07s.51.12.67.23.27.25.33.43c.06.18.09.4.09.67v4.62h-2.07c-.56,0-1.05-.06-1.44-.18s-.72-.27-.98-.47-.44-.43-.56-.68-.18-.53-.18-.81c0-.35.06-.66.17-.93s.27-.49.48-.67.47-.32.77-.41.65-.14,1.04-.14c.21,0,.45.04.72.11s.52.18.77.32v-.78c0-.1-.01-.19-.03-.29s-.08-.19-.16-.26-.22-.14-.41-.19-.43-.08-.75-.08ZM119.26,173.45v-2.9c-.2-.12-.41-.21-.63-.27s-.46-.09-.73-.09c-.21,0-.4.04-.56.11s-.3.18-.41.32-.19.3-.25.49-.09.4-.09.64c0,.07,0,.15,0,.26s.03.23.06.35.09.25.16.38.18.24.31.35.31.19.51.25.46.1.76.1h.84ZM123.48,168.53c.17-.12.32-.21.45-.29s.24-.13.34-.18.19-.07.28-.09.17-.03.26-.03c.33,0,.57.11.73.34s.25.54.28.96l-1.11.33c-.04-.3-.1-.51-.17-.64s-.18-.19-.33-.19c-.09,0-.19.02-.31.06s-.26.1-.42.19v4.98h-1.28v-5.9h1.28v.46ZM128.08,168.55c.51-.22.95-.38,1.31-.47s.66-.14.9-.14c.18,0,.33.02.46.06s.24.09.33.14.16.13.21.2.09.15.12.23c.54-.24,1-.4,1.37-.49s.69-.14.95-.14c.2,0,.38.02.53.07s.28.13.39.24.18.26.23.44c.05.18.08.41.08.68v4.57h-1.28v-4.52c0-.12-.01-.22-.03-.32s-.06-.18-.12-.25c-.05-.07-.13-.13-.22-.17s-.21-.06-.35-.06c-.29,0-.54.04-.77.11s-.45.15-.66.23v4.98h-1.28v-4.59c0-.09,0-.17-.03-.26s-.05-.16-.1-.23c-.05-.07-.12-.13-.2-.17s-.2-.07-.33-.07c-.12,0-.25.01-.39.04s-.27.06-.41.1-.26.09-.39.13c-.12.05-.23.09-.32.13v4.92h-1.28v-5.9h1.28v.49ZM139.05,167.94c.43,0,.79.08,1.09.23s.54.37.73.64c.19.27.32.57.4.92s.12.72.12,1.1v.29h-3.89c0,.23.04.49.11.76s.2.52.37.75.39.42.66.57.61.23,1,.23h1.31v.51h-1.33c-.59,0-1.1-.07-1.53-.2s-.78-.33-1.05-.58-.48-.57-.61-.93-.2-.79-.2-1.26c0-.39.06-.77.19-1.14s.31-.69.54-.97.53-.51.88-.68.75-.25,1.2-.25ZM138.99,168.51c-.26,0-.48.06-.67.18s-.34.27-.46.47-.21.42-.27.68-.09.52-.09.8h2.67v-.27c0-.24-.03-.47-.07-.69s-.1-.42-.19-.59-.21-.31-.36-.41-.34-.15-.58-.15ZM149.08,173.96c-.5,0-.94-.04-1.32-.12s-.71-.19-.99-.33-.51-.31-.7-.51-.34-.41-.45-.65-.19-.48-.24-.75-.07-.53-.07-.81c0-.41.06-.79.19-1.14s.31-.65.57-.9c.25-.25.58-.45.97-.59s.85-.22,1.39-.22c.21,0,.45.04.72.11s.52.18.77.32v-3.72h1.28v9.31h-2.1ZM146.59,170.78c0,.14,0,.31.03.49s.06.38.12.58.14.39.26.58.26.36.44.51.41.27.68.37.59.14.97.14h.81v-4.61c-.2-.12-.41-.21-.63-.27s-.46-.09-.73-.09c-.31,0-.59.06-.83.19s-.45.3-.61.51-.29.46-.38.74-.13.57-.13.87ZM155.3,167.94c.43,0,.79.08,1.09.23s.54.37.73.64c.19.27.32.57.4.92s.12.72.12,1.1v.29h-3.89c0,.23.04.49.11.76s.2.52.37.75.39.42.66.57.61.23,1,.23h1.31v.51h-1.33c-.59,0-1.1-.07-1.53-.2s-.78-.33-1.05-.58-.48-.57-.61-.93-.2-.79-.2-1.26c0-.39.06-.77.19-1.14s.31-.69.54-.97.53-.51.88-.68.75-.25,1.2-.25ZM155.24,168.51c-.26,0-.48.06-.67.18s-.34.27-.46.47-.21.42-.27.68-.09.52-.09.8h2.67v-.27c0-.24-.03-.47-.07-.69s-.1-.42-.19-.59-.21-.31-.36-.41-.34-.15-.58-.15ZM161.93,164.65h1.28v9.31h-1.28v-9.31ZM166.97,168.49c-.2,0-.38,0-.53.02s-.29.03-.41.05-.24.04-.34.07-.21.06-.32.08l-.15-.41c.35-.13.72-.22,1.11-.28s.75-.08,1.1-.08c.44,0,.81.02,1.09.07s.51.12.67.23.27.25.33.43c.06.18.09.4.09.67v4.62h-2.07c-.56,0-1.05-.06-1.44-.18s-.72-.27-.98-.47-.44-.43-.56-.68-.18-.53-.18-.81c0-.35.06-.66.17-.93s.27-.49.48-.67.47-.32.77-.41.65-.14,1.04-.14c.21,0,.45.04.72.11s.52.18.77.32v-.78c0-.1-.01-.19-.03-.29s-.08-.19-.16-.26-.22-.14-.41-.19-.43-.08-.75-.08ZM168.32,173.45v-2.9c-.2-.12-.41-.21-.63-.27s-.46-.09-.73-.09c-.21,0-.4.04-.56.11s-.3.18-.41.32-.19.3-.25.49-.09.4-.09.64c0,.07,0,.15,0,.26s.03.23.06.35.09.25.16.38.18.24.31.35.31.19.51.25.46.1.76.1h.84ZM175.57,168.38c.24-.15.49-.25.76-.33s.51-.11.73-.11c.53,0,1,.07,1.39.22s.71.34.97.59c.25.25.44.55.57.9s.18.73.18,1.14-.06.81-.17,1.19-.31.72-.59,1.01-.67.53-1.16.7-1.11.26-1.86.26h-.81v2.27l-1.28.36v-8.52h1.28v.31ZM176.93,168.47c-.27,0-.51.03-.73.09s-.43.15-.63.28v4.61h.81c.38,0,.7-.05.97-.14s.5-.21.68-.37.33-.32.45-.51.2-.38.26-.58.1-.39.12-.58.03-.35.03-.49c0-.3-.04-.6-.13-.87s-.21-.52-.38-.74-.37-.38-.61-.51-.52-.19-.84-.19ZM183.54,168.49c-.2,0-.38,0-.53.02s-.29.03-.41.05-.24.04-.34.07-.21.06-.32.08l-.15-.41c.35-.13.72-.22,1.11-.28s.75-.08,1.1-.08c.44,0,.81.02,1.09.07s.51.12.67.23.27.25.33.43c.06.18.09.4.09.67v4.62h-2.07c-.56,0-1.05-.06-1.44-.18s-.72-.27-.98-.47-.44-.43-.56-.68-.18-.53-.18-.81c0-.35.06-.66.17-.93s.27-.49.48-.67.47-.32.77-.41.65-.14,1.04-.14c.21,0,.45.04.72.11s.52.18.77.32v-.78c0-.1-.01-.19-.03-.29s-.08-.19-.16-.26-.22-.14-.41-.19-.43-.08-.75-.08ZM184.9,173.45v-2.9c-.2-.12-.41-.21-.63-.27s-.46-.09-.73-.09c-.21,0-.4.04-.56.11s-.3.18-.41.32-.19.3-.25.49-.09.4-.09.64c0,.07,0,.15,0,.26s.03.23.06.35.09.25.16.38.18.24.31.35.31.19.51.25.46.1.76.1h.84ZM183.2,165.34h1.47l1.15,1.83h-.63l-1.26-1.23-1.25,1.23h-.64l1.16-1.83ZM190.18,168.63h-.85v5.33h-1.21v-5.33h-.82v-.56h.82v-1.92l1.21-.36v2.28h.85v.56ZM192.58,173.96h-1.28v-5.9h1.28v5.9ZM192.58,167.08h-1.28v-.74h1.28v.74ZM195.84,167.94c.18,0,.33,0,.46.02s.25.04.37.07.23.06.34.1l.38.13v.55c-.21-.07-.42-.13-.64-.19s-.48-.08-.78-.08c-.06,0-.14,0-.23.03s-.17.04-.25.08-.15.09-.2.16c-.05.07-.08.15-.08.24,0,.11.05.24.15.39s.26.35.47.58l.68.76c.14.16.29.32.43.47s.27.3.38.45.2.29.27.43.1.29.1.43c0,.28-.06.51-.19.7s-.29.35-.49.47-.43.21-.69.27-.51.08-.77.08c-.36,0-.67-.04-.95-.12s-.54-.19-.78-.33l.05-.56c.19.1.4.19.63.28s.46.13.7.13c.4,0,.69-.07.89-.21s.3-.34.3-.6c0-.18-.08-.38-.23-.58s-.34-.42-.57-.66l-.67-.74c-.18-.22-.33-.41-.45-.56s-.22-.28-.3-.4-.13-.23-.17-.33-.05-.22-.05-.35c0-.21.05-.39.15-.53s.23-.26.4-.34.37-.15.6-.18.48-.05.75-.05ZM200.45,167.94c.18,0,.33,0,.46.02s.25.04.37.07.23.06.34.1l.38.13v.55c-.21-.07-.42-.13-.64-.19s-.48-.08-.78-.08c-.06,0-.14,0-.23.03s-.17.04-.25.08-.15.09-.2.16c-.05.07-.08.15-.08.24,0,.11.05.24.15.39s.26.35.47.58l.68.76c.14.16.29.32.43.47s.27.3.38.45.2.29.27.43.1.29.1.43c0,.28-.06.51-.19.7s-.29.35-.49.47-.43.21-.69.27-.51.08-.77.08c-.36,0-.67-.04-.95-.12s-.54-.19-.78-.33l.05-.56c.19.1.4.19.63.28s.46.13.7.13c.4,0,.69-.07.89-.21s.3-.34.3-.6c0-.18-.08-.38-.23-.58s-.34-.42-.57-.66l-.67-.74c-.18-.22-.33-.41-.45-.56s-.22-.28-.3-.4-.13-.23-.17-.33-.05-.22-.05-.35c0-.21.05-.39.15-.53s.23-.26.4-.34.37-.15.6-.18.48-.05.75-.05ZM205.93,167.94c.43,0,.79.08,1.09.23s.54.37.73.64c.19.27.32.57.4.92s.12.72.12,1.1v.29h-3.89c0,.23.04.49.11.76s.2.52.37.75.39.42.66.57.61.23,1,.23h1.31v.51h-1.33c-.59,0-1.1-.07-1.53-.2s-.78-.33-1.05-.58-.48-.57-.61-.93-.2-.79-.2-1.26c0-.39.06-.77.19-1.14s.31-.69.54-.97.53-.51.88-.68.75-.25,1.2-.25ZM205.86,168.51c-.26,0-.48.06-.67.18s-.34.27-.46.47-.21.42-.27.68-.09.52-.09.8h2.67v-.27c0-.24-.03-.47-.07-.69s-.1-.42-.19-.59-.21-.31-.36-.41-.34-.15-.58-.15ZM210.8,168.53c.17-.12.32-.21.45-.29s.24-.13.34-.18.19-.07.28-.09.17-.03.26-.03c.33,0,.57.11.73.34s.25.54.28.96l-1.11.33c-.04-.3-.1-.51-.17-.64s-.18-.19-.33-.19c-.09,0-.19.02-.31.06s-.26.1-.42.19v4.98h-1.28v-5.9h1.28v.46ZM215.4,173.96h-1.28v-5.9h1.28v5.9ZM215.4,167.08h-1.28v-.74h1.28v.74ZM219.52,167.94c.43,0,.79.08,1.09.23s.54.37.73.64c.19.27.32.57.4.92s.12.72.12,1.1v.29h-3.89c0,.23.04.49.11.76s.2.52.37.75.39.42.66.57.61.23,1,.23h1.31v.51h-1.33c-.59,0-1.1-.07-1.53-.2s-.78-.33-1.05-.58-.48-.57-.61-.93-.2-.79-.2-1.26c0-.39.06-.77.19-1.14s.31-.69.54-.97.53-.51.88-.68.75-.25,1.2-.25ZM219.46,168.51c-.26,0-.48.06-.67.18s-.34.27-.46.47-.21.42-.27.68-.09.52-.09.8h2.67v-.27c0-.24-.03-.47-.07-.69s-.1-.42-.19-.59-.21-.31-.36-.41-.34-.15-.58-.15Z"/>
  </g>
</svg>